<?xml version="1.0" encoding="utf-8"?>
<!-- Generator: Adobe Illustrator 18.1.1, SVG Export Plug-In . SVG Version: 6.00 Build 0)  -->
<svg version="1.1" id="Layer_1" xmlns="http://www.w3.org/2000/svg" xmlns:xlink="http://www.w3.org/1999/xlink" x="0px" y="0px"
	 width="100px" height="100px" viewBox="0 0 100 100" enable-background="new 0 0 100 100" xml:space="preserve">
<polygon fill="#FFFFFF" points="65,60 50,69 35,60 35,42 50,33 65,42 "/>
<polygon fill="#FFFFFF" points="34,60 19,69 4,60 4,42 19,33 34,42 "/>
<polygon fill="#FFFFFF" points="50,88 35,97 20,88 20,70 35,61 50,70 "/>
<polygon fill="#FFFFFF" points="81,88 66,97 51,88 51,70 66,61 81,70 "/>
<polygon fill="#FFFFFF" points="96,60 81,69 66,60 66,42 81,33 96,42 "/>
<polygon id="two" fill="#FFFFFF" points="81,32 66,41 51,32 51,14 66,5 81,14 "/>
<polygon id="one" fill="#FFFFFF" points="50,32 35,41 20,32 20,14 35,5 50,14 "/>
</svg>
